<?xml version="1.0" encoding="UTF-8"?>
<svg width="201px" height="68px" viewBox="0 0 201 68" version="1.1" xmlns="http://www.w3.org/2000/svg" xmlns:xlink="http://www.w3.org/1999/xlink">
    <title>Group 44</title>
    <defs>
        <polygon id="path-1" points="0.2404 0.330769231 11.5897333 0.330769231 11.5897333 18.2952308 0.2404 18.2952308"></polygon>
    </defs>
    <g id="Symbols" stroke="none" stroke-width="1" fill="none" fill-rule="evenodd">
        <g id="PrimaryFooter" transform="translate(-157.000000, -59.000000)">
            <g id="Group-44" transform="translate(157.000000, 59.000000)">
                <path d="M17.9680315,6.62495429 L17.4604722,5 L16.48056,7.01813794 C13.7520619,12.4351642 13.1608874,18.9057998 15.2762068,26 C19.4158958,20.834857 19.769427,13.8343451 17.9680315,6.62495429" id="Fill-1" fill="#FEFEFE"></path>
                <path d="M7.36550533,17 C6.86381876,22.6344416 6.21263246,30.7224711 10.4561246,36 C13.523744,30.4910006 11.7757472,20.7423564 7.36550533,17" id="Fill-3" fill="#FEFEFE"></path>
                <path d="M13.7338765,43.9588054 C14.0068641,42.8338171 14.0428624,41.3612958 14.359348,40.1404363 C14.8498257,38.200543 15.6747881,36.3834847 16.2612614,34.4660612 C16.5027504,33.7005898 16.4757516,32.9156446 16.7652384,32.2055987 C18.5636565,27.8090066 20.0440891,23.6041569 22,20 C20.5900642,20.3175733 19.343621,21.4066099 18.6491526,22.2904222 C15.3163044,26.5402116 14.4493439,32.2445464 13.304896,37.4575414 C12.9509122,39.0723715 12.2534439,40.6108042 12.4229362,41.8466436 C10.2990329,50.0690947 11.001001,58.3829229 11.6774702,67.1656212 C11.8289633,67.4292669 11.9294587,67.7078925 11.9834562,68 L14.0698612,67.4607247 C14.1478576,66.5784103 14.293351,65.7185657 14.512341,64.8811909 C11.9564574,57.9754705 12.2849425,49.9522517 13.7338765,43.9588054" id="Fill-5" fill="#FEFEFE"></path>
                <path d="M6.00407099,35.8074746 C5.1818964,33.4943463 1.10560819,28.1702912 0.16395889,28.0010379 C-0.0608421952,27.9089878 -0.0514099818,33.9664739 0.173391103,35.5832882 C0.733035762,38.7085353 1.50018912,41.4091645 2.67135561,44.2582615 C4.41474304,48.0649757 7.16580527,52.6986556 11,51.9117763 C8.91076474,45.9626718 8.07601386,41.7743952 6.00407099,35.8074746" id="Fill-7" fill="#FEFEFE"></path>
                <path d="M28.3488608,48.0852656 C21.8096203,48.8815055 16.1255696,55.0719252 15,61 C21.9356962,60.1040384 25.2425316,54.6469571 28.6875949,49.7897405 L28.6936709,49.7820696 C29.1235443,49.1760682 29.5579747,48.5792718 30,48.0024198 C29.4440506,47.9916806 28.8926582,48.0162275 28.3488608,48.0852656" id="Fill-9" fill="#FEFEFE"></path>
                <g id="Group-13" transform="translate(22.000000, 0.000000)">
                    <mask id="mask-2" fill="white">
                        <use xlink:href="#path-1"></use>
                    </mask>
                    <g id="Clip-12"></g>
                    <path d="M11.5897333,0.330615385 C11.5897333,0.330615385 10.0388444,0.647538462 7.25595556,3.30753846 C3.33906667,7.00907692 0.347733333,12.6136923 0.2404,18.2952308 C5.89484444,14.8567692 10.4588444,8.58907692 11.3766222,2.22753846 L11.5897333,0.330615385 Z" id="Fill-11" fill="#FEFEFE" mask="url(#mask-2)"></path>
                </g>
                <path d="M23.3350566,23.8772042 C21.4069959,26.3785851 20.0056099,29.3216486 19,32 C21.2237378,31.6772891 23.0917391,30.875717 24.6902431,29.7603569 C28.6788032,27.0031867 30.9456605,22.3127257 33,18 C28.7943021,18.4595284 25.6896931,20.8107075 23.3350566,23.8772042" id="Fill-14" fill="#FEFEFE"></path>
                <path d="M25.113943,36.0108659 L25.113943,36.0020374 C20.3688156,38.0546689 17.0989505,42.9338993 16,48 C20.3883058,46.5065082 23.5937031,43.8962083 26.1694153,40.7488398 L26.1649175,40.7385399 C27.6041979,38.9654782 28.8590705,37.0129032 30,35 C28.2428786,35.0088285 26.6041979,35.370798 25.113943,36.0108659" id="Fill-16" fill="#FEFEFE"></path>
                <path d="M57.8021396,20.4055323 C55.5835423,20.4055323 53.5211842,20.3727736 52.4334615,20.2923658 C52.1730627,20.4055323 52.1328869,21.075597 52.4334615,21.2319455 L54.0851335,21.4195636 C56.4138423,21.6771663 56.5239537,21.9064773 56.5239537,25.0647157 L56.5239537,26.5656606 C56.5239537,27.765821 56.3379546,28.4477979 56.1519555,28.7054006 C55.7368055,29.3441956 54.3455323,29.8325984 52.0168235,29.8325984 C44.4726999,29.8325984 40.7571819,24.1638509 40.7571819,16.9494874 C40.7571819,11.3134987 43.9474385,6.12868679 51.2311633,6.12868679 C55.0597688,6.12868679 57.8780272,7.40627685 58.9285501,11.4624019 C59.154725,11.6887349 59.8317618,11.6440639 59.9448492,11.3462574 C59.6055869,9.09632896 59.379412,7.13973999 59.379412,5.89937575 C58.9285501,5.97680545 57.7664277,5.71324666 57.0521912,5.56136533 C56.4138423,5.41097303 54.4214199,5 52.2816862,5 C46.6139216,5 42.8954275,6.76748182 40.3807197,9.39562453 C38.0549869,11.874864 37,15.109043 37,18.2985511 C37,21.6101598 38.2022982,24.5748239 40.4551193,26.8321975 C43.3433134,29.7596358 47.4412456,31 51.906712,31 C53.9333583,31 56.6370412,30.5503121 58.6279756,30.0231945 C59.3422121,29.8325984 60.0162729,29.6866732 60.4701107,29.6866732 C60.61891,29.5705286 60.61891,29.3441956 60.5043345,29.2340072 C59.8317618,28.9734265 59.6055869,28.0710727 59.6055869,26.5656606 L59.6055869,24.4661245 C59.6055869,22.5452723 59.6427867,21.4925262 61.2200591,21.3063971 L61.8197202,21.2319455 C62.0830949,21.0041235 62.0473831,20.4412691 61.7810324,20.2923658 C60.5445103,20.3727736 59.2663245,20.4055323 57.8021396,20.4055323" id="Fill-18" fill="#FEFEFE"></path>
                <path d="M83.4778055,29.066877 C76.1990003,31.1720663 71.5033409,24.8120657 69.9269518,19.3146718 C67.5981606,11.1758322 71.8323264,7.09262298 75.6720142,5.98180621 C82.7238803,3.93943551 87.3144471,9.76930836 89.0675136,15.9040813 C91.1663195,23.217086 87.9054026,27.782926 83.4778055,29.066877 M75.9720612,4.64576176 C68.3612243,6.85054153 64.4469056,14.1390317 66.5761731,21.5684807 C68.48764,28.2609603 75.1313204,32.7302741 83.3285435,30.3554244 C90.4550406,28.2900713 94.5764984,21.1839083 92.432,13.6793834 C90.557087,7.14165213 84.499793,2.17438596 75.9720612,4.64576176" id="Fill-20" fill="#FEFEFE"></path>
                <path d="M106.265212,16.8333429 L103.232786,14.9556726 C101.836669,14.0920337 100.014211,12.51217 100.014211,10.3366932 C100.014211,8.6064372 100.811349,6.16740164 104.523819,6.16740164 C108.158227,6.16740164 109.183547,8.6064372 109.680444,10.4111448 C109.866593,10.6315217 110.47458,10.5198442 110.6247,10.2935113 C110.6247,8.71960369 110.283927,6.60964435 109.944656,5.71175763 C109.638411,5.71175763 109.106986,5.63432793 108.614592,5.48542466 C107.632806,5.22335491 106.265212,5 105.092774,5 C100.168835,5 97.3675941,7.89170151 97.3675941,11.4609129 C97.3675941,14.5432106 99.5653523,16.6874177 101.458367,17.9233148 L105.052242,20.253651 C107.818955,22.0181547 108.158227,23.8585992 108.158227,25.5173816 C108.158227,27.765821 106.610488,29.8325984 103.427942,29.8325984 C99.0324259,29.8325984 97.4771817,26.1517095 96.911229,24.2383025 C96.7581065,24.0104805 96.1906525,24.0849321 96,24.34998 C96.0780624,26.1144837 96.5704564,28.7798522 97.0253203,29.6107325 C97.7428943,30.0231945 99.75,31 102.935548,31 C107.860989,31 111,28.1857282 111,24.0521734 C111,20.482962 108.655124,18.2985511 106.265212,16.8333429" id="Fill-22" fill="#FEFEFE"></path>
                <path d="M143.934595,28.9513298 C141.69787,28.6850717 141.619952,28.1956923 141.619952,24.2568573 L141.619952,10.7476052 C141.619952,6.80282025 141.69787,6.24204201 143.934595,6.01445826 L144.741283,5.93859701 C144.973511,5.78984947 144.898648,5.11156066 144.667948,5 C142.927764,5.08329863 141.619952,5.11156066 140.118107,5.11156066 C138.536816,5.11156066 137.224421,5.08329863 135.45368,5 C135.219924,5.11156066 135.143533,5.78984947 135.375762,5.93859701 L136.109114,6.01445826 C138.382507,6.24204201 138.458897,6.80282025 138.458897,10.7476052 L138.458897,15.0627715 C138.458897,16.2259773 138.382507,16.2601892 136.530792,16.2601892 L125.507589,16.2601892 C123.655874,16.2601892 123.577955,16.2259773 123.577955,15.0627715 L123.577955,10.7476052 C123.577955,6.80282025 123.655874,6.24204201 125.891071,6.01445826 L126.61984,5.93859701 C126.852068,5.78984947 126.78026,5.11156066 126.544977,5 C124.89035,5.08329863 123.577955,5.11156066 122.074583,5.11156066 C120.413845,5.11156066 119.104505,5.03569941 117.219179,5 C116.983895,5.11156066 116.909032,5.78984947 117.139732,5.93859701 L118.138925,6.01445826 C120.144949,6.16023086 120.413845,6.80282025 120.413845,10.7476052 L120.413845,24.2568573 C120.413845,28.1956923 120.338982,28.573511 118.180176,28.9513298 L117.52627,29.0599155 C117.290986,29.2830368 117.37196,29.8824894 117.601133,30 C119.104505,29.9628131 120.413845,29.8824894 122.074583,29.8824894 C123.577955,29.8824894 124.89035,29.9271137 126.971238,30 C127.203466,29.8824894 127.278329,29.2101505 127.046101,29.0599155 L125.927738,28.9513298 C123.768932,28.7222586 123.577955,28.1956923 123.577955,24.2568573 L123.577955,18.9614446 C123.577955,17.8443506 123.655874,17.7640269 125.507589,17.7640269 L136.530792,17.7640269 C138.382507,17.7640269 138.458897,17.8443506 138.458897,18.9614446 L138.458897,24.2568573 C138.458897,28.1956923 138.458897,28.573511 136.109114,28.9513298 L135.375762,29.0599155 C135.143533,29.2830368 135.219924,29.8824894 135.45368,30 C137.14803,29.9271137 138.536816,29.8824894 140.118107,29.8824894 C141.619952,29.8824894 142.927764,29.9271137 144.782534,30 C145.01629,29.8824894 145.091153,29.2101505 144.858925,29.0599155 L143.934595,28.9513298 Z" id="Fill-24" fill="#FEFEFE"></path>
                <path d="M169.034318,24.5224636 C168.031964,26.4712883 166.988355,27.7893484 166.299237,28.1642368 C165.449681,28.5763166 164.332728,28.7250818 161.362339,28.7250818 C157.968699,28.7250818 157.157342,28.3144897 156.697421,27.8622434 C156.083174,27.2255281 155.968575,25.9491223 155.968575,23.9616186 L155.968575,18.6655757 C155.968575,17.6896757 156.083174,17.653972 157.236797,17.653972 L159.47223,17.653972 C160.980344,17.653972 161.903243,17.6896757 162.444147,17.8384409 C163.21272,18.0288605 163.481645,18.5897054 163.639026,19.263612 L163.984349,20.7304374 C164.178403,20.9565605 164.833905,20.9565605 164.989759,20.6962214 C164.989759,19.8720619 164.833905,18.4364772 164.833905,17.0916394 C164.833905,15.6605177 164.989759,14.1966677 164.989759,13.3011009 C164.833905,13.0348111 164.178403,13.0348111 163.984349,13.2564713 L163.677226,14.7976793 C163.481645,15.7378756 163.21272,15.9639988 162.749743,16.1157394 C162.289821,16.2615293 161.093414,16.3373996 159.47223,16.3373996 L157.236797,16.3373996 C156.083174,16.3373996 155.968575,16.3373996 155.968575,15.2856293 L155.968575,7.77447188 C155.968575,6.35525141 155.968575,6.27789348 157.120671,6.27789348 L159.898535,6.27789348 C161.593063,6.27789348 162.829198,6.3180601 163.639026,6.50401666 C165.645262,6.98899137 165.989057,8.30705147 166.569689,10.0699197 C166.760686,10.2960428 167.381045,10.2231479 167.530787,9.99256174 C167.381045,8.34275513 167.145737,5.64117822 166.913484,5 C166.453562,5.11157394 164.178403,5.11157394 161.713774,5.11157394 L154.465045,5.11157394 C152.880531,5.11157394 151.571054,5.08182089 149.910141,5 C149.677889,5.11157394 149.604546,5.78548051 149.83527,5.93870872 L150.452574,6.01309134 C152.724677,6.27789348 152.802604,6.84022612 152.802604,10.7482892 L152.802604,24.2591491 C152.802604,28.1969652 152.611607,28.7667361 150.412846,28.9541803 L149.14004,29.0627789 C148.907788,29.2859268 148.985714,29.8854508 149.217967,30 C151.494655,29.9285927 152.802604,29.8854508 154.465045,29.8854508 L157.932027,29.8854508 C161.362339,29.8854508 164.79265,29.9285927 168.262689,30 C168.768449,28.9883963 169.731076,26.0993752 170,24.785778 C169.845674,24.4495686 169.303242,24.3335317 169.034318,24.5224636" id="Fill-26" fill="#FEFEFE"></path>
                <path d="M200.761371,5 C199.463823,5.08345979 198.471402,5.1138088 196.837006,5.1138088 C195.386894,5.1138088 194.089346,5.08345979 192.337128,5 C192.035021,5.1138088 191.992726,5.73141123 192.26009,5.95751138 L192.90962,6.03338392 C194.432237,6.2276176 195.044003,6.4552352 195.272093,6.80273141 C195.994128,7.94688923 196.030381,12.9317147 196.030381,14.7268589 L196.030381,22.9165402 C196.030381,23.723824 196.030381,24.3414264 195.882349,24.5265554 L195.806822,24.5265554 C194.012309,22.6919575 192.143779,20.5477997 189.513941,17.599393 L185.820688,13.4218513 C184.562414,12.0121396 180.065557,6.95599393 179.299716,5 C178.805772,5.08345979 178.156243,5.1138088 177.547498,5.1138088 C176.860205,5.1138088 174.840623,5.1138088 173.242479,5 C172.93433,5.16084977 172.93433,5.73141123 173.16091,5.95751138 L173.808929,6.03338392 C174.725822,6.14415781 175.642716,6.41578149 176.174423,6.95599393 C176.975006,7.83611533 177.01579,8.64036419 177.01579,9.71168437 L177.01579,20.7799697 C177.01579,22.6145675 177.052043,27.2867982 176.515804,28.6616085 C176.326987,29.0819423 175.719753,29.3125948 174.840623,29.4339909 L173.808929,29.5432473 C173.579328,29.7723824 173.623133,30.3125948 173.890497,30.5007587 C175.224298,30.4279211 176.24995,30.383915 177.854136,30.383915 C179.260443,30.383915 180.595754,30.4279211 182.310209,30.5007587 C182.577573,30.3125948 182.616847,29.8543247 182.388757,29.5432473 L181.20752,29.4339909 C180.249842,29.3566009 179.488533,29.1259484 179.260443,28.7025797 C178.615445,27.5538695 178.574661,22.5766313 178.574661,20.7799697 L178.574661,12.4339909 C178.574661,11.2746586 178.615445,10.4021244 178.766498,9.94233687 L178.840514,9.94233687 C179.641097,10.7814871 182.233172,13.9241275 183.264866,15.1122914 L192.110548,25.2185129 C195.421636,29.0075873 196.530367,30.3474962 196.985038,31 C197.407987,31 197.633057,30.8057663 197.710094,30.5796662 C197.595293,29.5842185 197.595293,25.0242792 197.595293,23.8770865 L197.595293,14.7268589 C197.595293,12.9620637 197.518256,8.21396055 198.169296,6.83915023 C198.318839,6.53414264 199.083168,6.2276176 200.303679,6.03338392 L200.839918,5.95751138 C201.064988,5.73141123 201.064988,5.19423369 200.761371,5" id="Fill-28" fill="#FEFEFE"></path>
                <path d="M78.5350079,62.2811469 C72.0665271,64.1542442 67.8910112,58.4990463 66.4887635,53.6098435 C64.4233107,46.379269 68.1824646,42.7467768 71.5921718,41.7623535 C77.8658547,39.9476035 81.9447151,45.1255506 83.5045855,50.5817693 C85.3663184,57.0852469 82.4770636,61.1396348 78.5350079,62.2811469 M71.8583461,40.5744627 C65.1013859,42.5343329 61.6217893,49.010881 63.5102883,55.6131001 C65.2129114,61.5675148 71.1163295,65.5396181 78.4026642,63.4256513 C84.7358274,61.5899561 88.4042739,55.273489 86.4934698,48.6054422 C84.8280218,42.7916594 79.4435692,38.3767152 71.8583461,40.5744627" id="Fill-30" fill="#FEFEFE"></path>
                <path d="M41.3857711,42.0702024 C43.9262279,40.013659 47.1633093,39 50.7857576,39 C52.6636798,39 55.3153001,39.3937735 56.9456983,39.8706085 C57.3636731,39.9736664 57.6082328,40.0428844 57.922455,40.013659 C57.9565452,40.8411985 58.1299603,43.1161632 58.4086101,45.3188334 C58.2307485,45.5710946 57.7149498,45.6110872 57.4718723,45.3895896 C56.9456983,42.9346582 55.3805161,40.1167169 50.3322105,40.1167169 C45.0067372,40.1167169 40.480159,43.6222236 40.480159,51.1023811 C40.480159,58.6825202 45.1104898,62.8771304 50.8213299,62.8771304 C55.3153001,62.8771304 57.2940106,59.8438442 58.0943879,57.7180828 C58.3389477,57.5304252 58.8591929,57.6027195 59,57.8549806 C58.7524759,59.73771 57.8513104,62.1188088 57.329583,62.8079124 C56.9116082,62.8771304 56.4951155,63.0263336 56.1127131,63.1678459 C55.3464259,63.4554851 52.8400593,64 50.6123425,64 C47.4775315,64 44.4835276,63.3493509 41.9430708,61.5773703 C39.1580543,59.5915831 37,56.3060358 37,51.6407432 C37,47.6322525 38.7385973,44.2021165 41.3857711,42.0702024" id="Fill-32" fill="#FEFEFE"></path>
                <path d="M94.2499242,45.5101336 C94.2499242,41.7293012 94.1789962,41.1477527 91.9920484,40.9712934 L91.1246577,40.8991752 C90.9192619,40.7518701 90.985757,40.1089444 91.1926304,40 C93.135763,40.0721182 94.3178969,40.1089444 95.7083819,40.1089444 C97.0604476,40.1089444 98.2396261,40.0721182 99.97293,40 C100.184236,40.1089444 100.255164,40.7518701 100.045336,40.8991752 L99.2148866,40.9712934 C97.1624066,41.1477527 97.0959116,41.7293012 97.0959116,45.5101336 L97.0959116,58.0571575 C97.0959116,60.3235087 97.1993483,61.2595103 97.8229239,61.9469343 C98.2041621,62.342817 98.8632018,62.7709226 101.60723,62.7709226 C104.556654,62.7709226 105.286622,62.6297551 105.840747,62.3044562 C106.536728,61.8748162 107.436628,60.5766895 108.129654,58.7430471 C108.34096,58.5573812 109,58.7000831 109,58.9532639 C109,59.3506809 108.029173,63.0271722 107.541542,64 C105.771297,63.9263474 102.474621,63.89259 98.9016211,63.89259 L95.7083819,63.89259 C94.2499242,63.89259 93.135763,63.9263474 91.1926304,64 C90.985757,63.89259 90.9192619,63.3171792 91.1246577,63.0977559 L92.1664132,62.9934147 C94.1789962,62.7709226 94.2499242,62.2660955 94.2499242,58.4867975 L94.2499242,45.5101336 Z" id="Fill-34" fill="#FEFEFE"></path>
                <path d="M115.251761,45.5101336 C115.251761,41.7293012 115.180828,41.1477527 112.995192,40.9712934 L112.127736,40.8991752 C111.916413,40.7518701 111.987347,40.1089444 112.194236,40 C114.138993,40.0721182 115.319739,40.1089444 116.707374,40.1089444 C118.06102,40.1089444 119.241766,40.0721182 120.975201,40 C121.18209,40.1089444 121.257457,40.7518701 121.046134,40.8991752 L120.212667,40.9712934 C118.164465,41.1477527 118.093531,41.7293012 118.093531,45.5101336 L118.093531,58.0571575 C118.093531,60.3235087 118.199931,61.2595103 118.825032,61.9469343 C119.203343,62.342817 119.866866,62.7709226 122.609625,62.7709226 C125.557795,62.7709226 126.289296,62.6297551 126.846419,62.3044562 C127.535064,61.8748162 128.439465,60.5766895 129.135499,58.7430471 C129.342388,58.5573812 130,58.7000831 130,58.9532639 C130,59.3506809 129.029099,63.0271722 128.542909,64 C126.771052,63.9263474 123.477082,63.89259 119.900855,63.89259 L116.707374,63.89259 C115.251761,63.89259 114.138993,63.9263474 112.194236,64 C111.987347,63.89259 111.916413,63.3171792 112.127736,63.0977559 L113.16957,62.9934147 C115.180828,62.7709226 115.251761,62.2660955 115.251761,58.4867975 L115.251761,45.5101336 Z" id="Fill-36" fill="#FEFEFE"></path>
                <path d="M135.442582,45.5101336 C135.442582,41.7661275 135.371285,41.2260086 133.312609,40.9712934 L132.754122,40.8991752 C132.546175,40.7518701 132.617471,40.1089444 132.825418,40 C134.324123,40.0721182 135.510907,40.1089444 136.941286,40.1089444 L143.497563,40.1089444 C145.730025,40.1089444 147.788702,40.1089444 148.209052,40 C148.418485,40.6076338 148.627917,43.2038872 148.766053,44.792021 C148.627917,45.0083754 148.070916,45.0758903 147.895646,44.8656736 C147.371322,43.1655265 147.057916,41.9103638 145.242834,41.4408286 C144.512049,41.259766 143.39359,41.2260086 141.859237,41.2260086 L139.350503,41.2260086 C138.30037,41.2260086 138.30037,41.2950579 138.30037,42.6622339 L138.30037,49.874049 C138.30037,50.8806342 138.407314,50.8806342 139.454476,50.8806342 L141.478991,50.8806342 C142.942047,50.8806342 144.020402,50.8069817 144.440752,50.6642798 C144.862588,50.5215779 145.106183,50.3067579 145.278482,49.4014449 L145.559211,47.92379 C145.730025,47.7105044 146.322674,47.7105044 146.465267,47.9621508 C146.465267,48.8275686 146.322674,50.2315709 146.322674,51.6033502 C146.322674,52.9030113 146.465267,54.2701873 146.465267,55.0650214 C146.322674,55.3166677 145.730025,55.3166677 145.559211,55.1033821 L145.242834,53.6947765 C145.106183,53.0395755 144.862588,52.5071287 144.162994,52.3260661 C143.671348,52.1802954 142.838074,52.1419347 141.478991,52.1419347 L139.454476,52.1419347 C138.407314,52.1419347 138.30037,52.1802954 138.30037,53.1162969 L138.30037,58.2029282 C138.30037,60.1056198 138.407314,61.3346973 138.967286,61.9469343 C139.384666,62.3781088 140.118422,62.7709226 143.185643,62.7709226 C145.871132,62.7709226 146.885617,62.6297551 147.652051,62.2338725 C148.280348,61.8748162 149.219081,60.6119813 150.126622,58.7430471 C150.371703,58.5573812 150.860378,58.6632568 151,58.9900901 C150.753434,60.2544594 149.884512,63.0271722 149.429999,64 C146.292967,63.9263474 143.185643,63.89259 140.079803,63.89259 L136.941286,63.89259 C135.442582,63.89259 134.254312,63.9263474 132.195635,64 C131.986203,63.89259 131.917877,63.3171792 132.125824,63.0977559 L133.27696,62.9934147 C135.265827,62.8138866 135.442582,62.2660955 135.442582,58.4867975 L135.442582,45.5101336 Z" id="Fill-38" fill="#FEFEFE"></path>
                <path d="M174.70104,59.73771 C174.70104,61.1820587 174.915932,62.0495908 175.563678,62.2972374 C175.675729,62.4095244 175.675729,62.6248693 175.529909,62.7371562 C175.097055,62.7371562 174.447774,62.8771304 173.763189,63.055559 C171.852183,63.5677721 169.255058,64 167.311819,64 C163.017045,64 159.090658,62.8079124 156.315479,59.9899711 C154.152743,57.8211407 153,54.9678213 153,51.7853319 C153,48.7151295 154.008458,45.6110872 156.241802,43.2238356 C158.657804,40.698148 162.228084,39 167.669461,39 C169.726286,39 171.634221,39.3937735 172.252804,39.5429767 C172.932784,39.6829508 174.048688,39.9398265 174.483077,39.8706085 C174.483077,41.0565434 174.70104,42.9346582 175.027983,45.1034886 C174.915932,45.3895896 174.268185,45.4295822 174.048688,45.2157755 C173.041765,41.3103427 170.337193,40.0798007 166.662537,40.0798007 C159.667797,40.0798007 156.600979,45.0650341 156.600979,50.4855719 C156.600979,57.4258291 160.172794,62.8771304 167.4208,62.8771304 C169.652608,62.8771304 170.983405,62.4095244 171.38556,61.7896388 C171.563614,61.5450686 171.741667,60.8913431 171.741667,59.73771 L171.741667,58.2887467 C171.741667,55.2569987 171.634221,55.0385775 169.399343,54.7817018 L167.813745,54.6109641 C167.528246,54.4586846 167.562015,53.8049591 167.813745,53.7019012 C168.859042,53.7757337 170.84526,53.8049591 172.971158,53.8049591 C174.378701,53.8049591 175.600517,53.7757337 176.790098,53.7019012 C177.044899,53.8464899 177.080203,54.3863902 176.826937,54.6109641 L176.249798,54.6771058 C174.734808,54.8586107 174.70104,55.8722697 174.70104,57.7180828 L174.70104,59.73771 Z" id="Fill-40" fill="#FEFEFE"></path>
                <path d="M183.440943,45.5101336 C183.440943,41.7661275 183.369639,41.2260086 181.313716,40.9712934 L180.755171,40.8991752 C180.547202,40.7518701 180.615534,40.1089444 180.823503,40 C182.325337,40.0721182 183.50779,40.1089444 184.942776,40.1089444 L191.50123,40.1089444 C193.733926,40.1089444 195.788363,40.1089444 196.210243,40 C196.418213,40.6076338 196.626182,43.2038872 196.770274,44.792021 C196.626182,45.0083754 196.070607,45.0758903 195.895319,44.8656736 C195.372425,43.1655265 195.057501,41.9103638 193.245199,41.4408286 C192.511365,41.259766 191.39576,41.2260086 189.861245,41.2260086 L187.34779,41.2260086 C186.302003,41.2260086 186.302003,41.2950579 186.302003,42.6622339 L186.302003,49.874049 C186.302003,50.8806342 186.408958,50.8806342 187.45326,50.8806342 L189.477988,50.8806342 C190.941199,50.8806342 192.024123,50.8069817 192.444518,50.6642798 C192.861941,50.5215779 193.105562,50.3067579 193.282336,49.4014449 L193.561609,47.92379 C193.733926,47.7105044 194.325152,47.7105044 194.464789,47.9621508 C194.464789,48.8275686 194.325152,50.2315709 194.325152,51.6033502 C194.325152,52.9030113 194.464789,54.2701873 194.464789,55.0650214 C194.325152,55.3166677 193.733926,55.3166677 193.561609,55.1033821 L193.245199,53.6947765 C193.105562,53.0395755 192.861941,52.5071287 192.162274,52.3260661 C191.672061,52.1802954 190.837214,52.1419347 189.477988,52.1419347 L187.45326,52.1419347 C186.408958,52.1419347 186.302003,52.1802954 186.302003,53.1162969 L186.302003,58.2029282 C186.302003,60.1056198 186.408958,61.3346973 186.964533,61.9469343 C187.383442,62.3781088 188.11579,62.7709226 191.18779,62.7709226 C193.875048,62.7709226 194.883698,62.6297551 195.651698,62.2338725 C196.280062,61.8748162 197.22335,60.6119813 198.129501,58.7430471 C198.376093,58.5573812 198.863335,58.6632568 199,58.9900901 C198.756379,60.2544594 197.884394,63.0271722 197.432805,64 C194.292472,63.9263474 191.18779,63.89259 188.078653,63.89259 L184.942776,63.89259 C183.440943,63.89259 182.254033,63.9263474 180.196625,64 C179.987171,63.89259 179.915867,63.3171792 180.128292,63.0977559 L181.275093,62.9934147 C183.268625,62.8138866 183.440943,62.2660955 183.440943,58.4867975 L183.440943,45.5101336 Z" id="Fill-42" fill="#FEFEFE"></path>
            </g>
        </g>
    </g>
</svg>